<mxfile host="www.draw.io" modified="2020-03-05T23:59:53.066Z" agent="Mozilla/5.0 (Windows NT 10.0; WOW64) AppleWebKit/537.36 (KHTML, like Gecko) Chrome/76.0.3809.132 Safari/537.36" etag="FYuDSIVMyb3LtLJimQgo" version="12.8.1" type="github">
  <diagram id="P5GaY6llUOyP0zUPhSW4" name="ページ1">
    <mxGraphModel dx="1022" dy="437" grid="1" gridSize="10" guides="1" tooltips="1" connect="1" arrows="1" fold="1" page="1" pageScale="1" pageWidth="827" pageHeight="1169" math="0" shadow="0">
      <root>
        <mxCell id="0" />
        <mxCell id="1" parent="0" />
        <mxCell id="iTMf0LML-ekzNX97L0cd-1" value="&amp;laquo;interface&amp;raquo;&lt;br&gt;&lt;b&gt;Name&lt;/b&gt;" style="html=1;" parent="1" vertex="1">
          <mxGeometry x="20" y="20" width="110" height="50" as="geometry" />
        </mxCell>
        <mxCell id="S7QVg3ZZSSZPas2lcmrq-1" value="msp_create_repository:GitHb" style="swimlane;fontStyle=0;childLayout=stackLayout;horizontal=1;startSize=26;fillColor=none;horizontalStack=0;resizeParent=1;resizeParentMax=0;resizeLast=0;collapsible=1;marginBottom=0;" parent="1" vertex="1">
          <mxGeometry x="100" y="80" width="290" height="152" as="geometry" />
        </mxCell>
        <mxCell id="S7QVg3ZZSSZPas2lcmrq-2" value="CUSTOMER_ID&#xa;CUSTOMER_TENANT_ID" style="text;strokeColor=none;fillColor=none;align=left;verticalAlign=top;spacingLeft=4;spacingRight=4;overflow=hidden;rotatable=0;points=[[0,0.5],[1,0.5]];portConstraint=eastwest;" parent="S7QVg3ZZSSZPas2lcmrq-1" vertex="1">
          <mxGeometry y="26" width="290" height="34" as="geometry" />
        </mxCell>
        <mxCell id="S7QVg3ZZSSZPas2lcmrq-3" value="CUSTOMER_INITIAL_ADMIN_ID&#xa;CUSTOMER_INITIAL_ADMIN_Secret&#xa;" style="text;strokeColor=none;fillColor=none;align=left;verticalAlign=top;spacingLeft=4;spacingRight=4;overflow=hidden;rotatable=0;points=[[0,0.5],[1,0.5]];portConstraint=eastwest;" parent="S7QVg3ZZSSZPas2lcmrq-1" vertex="1">
          <mxGeometry y="60" width="290" height="40" as="geometry" />
        </mxCell>
        <mxCell id="S7QVg3ZZSSZPas2lcmrq-4" value="CUSTOMER_SUBSCRIPTION_Managed-MGMT-1&#xa;CUSTOMER_SUBSCRIPTION_Managed-SRV-1&#xa;CUSTOMER_SUBSCRIPTION_UserSelf-1" style="text;strokeColor=none;fillColor=none;align=left;verticalAlign=top;spacingLeft=4;spacingRight=4;overflow=hidden;rotatable=0;points=[[0,0.5],[1,0.5]];portConstraint=eastwest;" parent="S7QVg3ZZSSZPas2lcmrq-1" vertex="1">
          <mxGeometry y="100" width="290" height="52" as="geometry" />
        </mxCell>
        <mxCell id="S7QVg3ZZSSZPas2lcmrq-5" value="msp_create_repository:CircleCI" style="swimlane;fontStyle=0;childLayout=stackLayout;horizontal=1;startSize=26;fillColor=none;horizontalStack=0;resizeParent=1;resizeParentMax=0;resizeLast=0;collapsible=1;marginBottom=0;" parent="1" vertex="1">
          <mxGeometry x="100" y="256" width="170" height="104" as="geometry" />
        </mxCell>
        <mxCell id="S7QVg3ZZSSZPas2lcmrq-6" value="Github Token" style="text;strokeColor=none;fillColor=none;align=left;verticalAlign=top;spacingLeft=4;spacingRight=4;overflow=hidden;rotatable=0;points=[[0,0.5],[1,0.5]];portConstraint=eastwest;" parent="S7QVg3ZZSSZPas2lcmrq-5" vertex="1">
          <mxGeometry y="26" width="170" height="26" as="geometry" />
        </mxCell>
        <mxCell id="S7QVg3ZZSSZPas2lcmrq-7" value="CircleCI Token" style="text;strokeColor=none;fillColor=none;align=left;verticalAlign=top;spacingLeft=4;spacingRight=4;overflow=hidden;rotatable=0;points=[[0,0.5],[1,0.5]];portConstraint=eastwest;" parent="S7QVg3ZZSSZPas2lcmrq-5" vertex="1">
          <mxGeometry y="52" width="170" height="26" as="geometry" />
        </mxCell>
        <mxCell id="S7QVg3ZZSSZPas2lcmrq-8" value="+ field: type" style="text;strokeColor=none;fillColor=none;align=left;verticalAlign=top;spacingLeft=4;spacingRight=4;overflow=hidden;rotatable=0;points=[[0,0.5],[1,0.5]];portConstraint=eastwest;" parent="S7QVg3ZZSSZPas2lcmrq-5" vertex="1">
          <mxGeometry y="78" width="170" height="26" as="geometry" />
        </mxCell>
        <mxCell id="S7QVg3ZZSSZPas2lcmrq-10" value="Create Repository" style="ellipse;whiteSpace=wrap;html=1;" parent="1" vertex="1">
          <mxGeometry x="344" y="256" width="140" height="70" as="geometry" />
        </mxCell>
        <mxCell id="S7QVg3ZZSSZPas2lcmrq-11" value="dispatch" style="html=1;verticalAlign=bottom;startArrow=oval;startFill=1;endArrow=block;startSize=8;entryX=0;entryY=0.5;entryDx=0;entryDy=0;exitX=1;exitY=0.5;exitDx=0;exitDy=0;" parent="1" source="S7QVg3ZZSSZPas2lcmrq-7" edge="1">
          <mxGeometry width="60" relative="1" as="geometry">
            <mxPoint x="270" y="297" as="sourcePoint" />
            <mxPoint x="344" y="291" as="targetPoint" />
          </mxGeometry>
        </mxCell>
        <mxCell id="S7QVg3ZZSSZPas2lcmrq-12" value="Context: CircleCI" style="swimlane;fontStyle=0;childLayout=stackLayout;horizontal=1;startSize=26;fillColor=none;horizontalStack=0;resizeParent=1;resizeParentMax=0;resizeLast=0;collapsible=1;marginBottom=0;" parent="1" vertex="1">
          <mxGeometry x="100" y="680" width="336" height="210" as="geometry" />
        </mxCell>
        <mxCell id="S7QVg3ZZSSZPas2lcmrq-13" value="+ field: type" style="text;strokeColor=none;fillColor=none;align=left;verticalAlign=top;spacingLeft=4;spacingRight=4;overflow=hidden;rotatable=0;points=[[0,0.5],[1,0.5]];portConstraint=eastwest;" parent="S7QVg3ZZSSZPas2lcmrq-12" vertex="1">
          <mxGeometry y="26" width="336" height="26" as="geometry" />
        </mxCell>
        <mxCell id="S7QVg3ZZSSZPas2lcmrq-16" value="MSPTOOL_CUSTKEY_KEYVAULT_CONTAINER_NAME&#xa;MSPTOOL_CUSTKEY_KEYVAULT_SUBSCRIPTION" style="text;strokeColor=none;fillColor=none;align=left;verticalAlign=top;spacingLeft=4;spacingRight=4;overflow=hidden;rotatable=0;points=[[0,0.5],[1,0.5]];portConstraint=eastwest;" parent="S7QVg3ZZSSZPas2lcmrq-12" vertex="1">
          <mxGeometry y="52" width="336" height="38" as="geometry" />
        </mxCell>
        <mxCell id="S7QVg3ZZSSZPas2lcmrq-15" value="MSPTOOL_CUSTKEY_KEYVAULT_TENANT&#xa;MSPTOOL_CUSTKEY_KEYVAULT_SP_SECRET&#xa;MSPTOOL_CUSTKEY_KEYVAULT_TENANT" style="text;strokeColor=none;fillColor=none;align=left;verticalAlign=top;spacingLeft=4;spacingRight=4;overflow=hidden;rotatable=0;points=[[0,0.5],[1,0.5]];portConstraint=eastwest;" parent="S7QVg3ZZSSZPas2lcmrq-12" vertex="1">
          <mxGeometry y="90" width="336" height="50" as="geometry" />
        </mxCell>
        <mxCell id="S7QVg3ZZSSZPas2lcmrq-17" value="AWX_ADM_USER_ID&#xa;AWX_ADM_USER_PASSWORD&#xa;AWX_JOB_USER_ID&#xa;AWX_JOB_USER_PASSWORD" style="text;strokeColor=none;fillColor=none;align=left;verticalAlign=top;spacingLeft=4;spacingRight=4;overflow=hidden;rotatable=0;points=[[0,0.5],[1,0.5]];portConstraint=eastwest;" parent="S7QVg3ZZSSZPas2lcmrq-12" vertex="1">
          <mxGeometry y="140" width="336" height="70" as="geometry" />
        </mxCell>
        <mxCell id="S7QVg3ZZSSZPas2lcmrq-18" value="Customore Project 〈環境変数〉: CircleCI" style="swimlane;fontStyle=0;childLayout=stackLayout;horizontal=1;startSize=26;fillColor=none;horizontalStack=0;resizeParent=1;resizeParentMax=0;resizeLast=0;collapsible=1;marginBottom=0;" parent="1" vertex="1">
          <mxGeometry x="100" y="430" width="336" height="186" as="geometry" />
        </mxCell>
        <mxCell id="S7QVg3ZZSSZPas2lcmrq-19" value="CUSTOMER_ID&#xa;CUSTOMER_TENANT_ID" style="text;strokeColor=none;fillColor=none;align=left;verticalAlign=top;spacingLeft=4;spacingRight=4;overflow=hidden;rotatable=0;points=[[0,0.5],[1,0.5]];portConstraint=eastwest;" parent="S7QVg3ZZSSZPas2lcmrq-18" vertex="1">
          <mxGeometry y="26" width="336" height="34" as="geometry" />
        </mxCell>
        <mxCell id="S7QVg3ZZSSZPas2lcmrq-20" value="CUSTOMER_SUBSCRIPTION_Managed-MGMT-1&#xa;CUSTOMER_SUBSCRIPTION_Managed-SRV-1&#xa;CUSTOMER_SUBSCRIPTION_UserSelf-1" style="text;strokeColor=none;fillColor=none;align=left;verticalAlign=top;spacingLeft=4;spacingRight=4;overflow=hidden;rotatable=0;points=[[0,0.5],[1,0.5]];portConstraint=eastwest;" parent="S7QVg3ZZSSZPas2lcmrq-18" vertex="1">
          <mxGeometry y="60" width="336" height="50" as="geometry" />
        </mxCell>
        <mxCell id="S7QVg3ZZSSZPas2lcmrq-21" value="MSPTOOL_CUSTKEY_KEYVAULT_TENANT&#xa;MSPTOOL_CUSTKEY_KEYVAULT_SP_SECRET&#xa;MSPTOOL_CUSTKEY_KEYVAULT_TENANT" style="text;strokeColor=none;fillColor=none;align=left;verticalAlign=top;spacingLeft=4;spacingRight=4;overflow=hidden;rotatable=0;points=[[0,0.5],[1,0.5]];portConstraint=eastwest;" parent="S7QVg3ZZSSZPas2lcmrq-18" vertex="1">
          <mxGeometry y="110" width="336" height="50" as="geometry" />
        </mxCell>
        <mxCell id="S7QVg3ZZSSZPas2lcmrq-22" value="+ field: type" style="text;strokeColor=none;fillColor=none;align=left;verticalAlign=top;spacingLeft=4;spacingRight=4;overflow=hidden;rotatable=0;points=[[0,0.5],[1,0.5]];portConstraint=eastwest;" parent="S7QVg3ZZSSZPas2lcmrq-18" vertex="1">
          <mxGeometry y="160" width="336" height="26" as="geometry" />
        </mxCell>
        <mxCell id="S7QVg3ZZSSZPas2lcmrq-27" style="edgeStyle=orthogonalEdgeStyle;rounded=0;orthogonalLoop=1;jettySize=auto;html=1;exitX=0.25;exitY=1;exitDx=0;exitDy=0;entryX=0;entryY=0.5;entryDx=0;entryDy=0;shape=link;" parent="1" source="S7QVg3ZZSSZPas2lcmrq-23" target="S7QVg3ZZSSZPas2lcmrq-24" edge="1">
          <mxGeometry relative="1" as="geometry" />
        </mxCell>
        <mxCell id="S7QVg3ZZSSZPas2lcmrq-23" value="Customer Tenant : Azure&amp;nbsp;" style="html=1;" parent="1" vertex="1">
          <mxGeometry x="559" y="70" width="240" height="50" as="geometry" />
        </mxCell>
        <mxCell id="S7QVg3ZZSSZPas2lcmrq-24" value="初期Adimin User" style="html=1;" parent="1" vertex="1">
          <mxGeometry x="640" y="140" width="170" height="40" as="geometry" />
        </mxCell>
        <mxCell id="S7QVg3ZZSSZPas2lcmrq-25" value="MSPTool用アプリケーション&lt;br&gt;Service Principal" style="html=1;" parent="1" vertex="1">
          <mxGeometry x="640" y="190" width="170" height="40" as="geometry" />
        </mxCell>
        <mxCell id="S7QVg3ZZSSZPas2lcmrq-28" value="Production KeyVault (KeyMng-prd)" style="swimlane;fontStyle=0;childLayout=stackLayout;horizontal=1;startSize=26;fillColor=none;horizontalStack=0;resizeParent=1;resizeParentMax=0;resizeLast=0;collapsible=1;marginBottom=0;" parent="1" vertex="1">
          <mxGeometry x="550" y="350" width="250" height="126" as="geometry" />
        </mxCell>
        <mxCell id="S7QVg3ZZSSZPas2lcmrq-29" value="clientid-AzureCustomerSP-{CustomerID}&#xa;secret-AzureCustomerSP-{CustomerID}" style="text;strokeColor=none;fillColor=none;align=left;verticalAlign=top;spacingLeft=4;spacingRight=4;overflow=hidden;rotatable=0;points=[[0,0.5],[1,0.5]];portConstraint=eastwest;" parent="S7QVg3ZZSSZPas2lcmrq-28" vertex="1">
          <mxGeometry y="26" width="250" height="34" as="geometry" />
        </mxCell>
        <mxCell id="S7QVg3ZZSSZPas2lcmrq-30" value="clientid-AADCustomerSP-{CustomerID}&#xa;cert-AADCustomerSP-{CustomerID}" style="text;strokeColor=none;fillColor=none;align=left;verticalAlign=top;spacingLeft=4;spacingRight=4;overflow=hidden;rotatable=0;points=[[0,0.5],[1,0.5]];portConstraint=eastwest;" parent="S7QVg3ZZSSZPas2lcmrq-28" vertex="1">
          <mxGeometry y="60" width="250" height="40" as="geometry" />
        </mxCell>
        <mxCell id="S7QVg3ZZSSZPas2lcmrq-31" value="+ field: type" style="text;strokeColor=none;fillColor=none;align=left;verticalAlign=top;spacingLeft=4;spacingRight=4;overflow=hidden;rotatable=0;points=[[0,0.5],[1,0.5]];portConstraint=eastwest;" parent="S7QVg3ZZSSZPas2lcmrq-28" vertex="1">
          <mxGeometry y="100" width="250" height="26" as="geometry" />
        </mxCell>
        <mxCell id="CM9sQIWE9t5lUVxzC3yI-2" style="edgeStyle=orthogonalEdgeStyle;rounded=0;orthogonalLoop=1;jettySize=auto;html=1;exitX=0.5;exitY=1;exitDx=0;exitDy=0;shape=link;" edge="1" parent="1" source="S7QVg3ZZSSZPas2lcmrq-32" target="S7QVg3ZZSSZPas2lcmrq-28">
          <mxGeometry relative="1" as="geometry" />
        </mxCell>
        <mxCell id="S7QVg3ZZSSZPas2lcmrq-32" value="SB Tenant : Azure&amp;nbsp;" style="html=1;" parent="1" vertex="1">
          <mxGeometry x="555" y="272" width="240" height="50" as="geometry" />
        </mxCell>
      </root>
    </mxGraphModel>
  </diagram>
</mxfile>
